<svg height="480pt" viewBox="0 -75 480.2 480" width="480pt" xmlns="http://www.w3.org/2000/svg"><path d="m443 99v-54.699219c0-24.101562-19.601562-44.199219-43.699219-44.199219h-318.601562c-24.097657.097657-43.699219 20.199219-43.699219 44.296876v54.703124c-21.300781 3.296876-37 21.597657-37 43.199219v141.597657c0 5.5 4.5 10.402343 10 10.402343h13v25.5c.101562 5.699219 4.601562 10.300781 10.300781 10.5h67.898438c5.5 0 9.902343-5 9.902343-10.5v-25.601562h258v25.5c0 5.5 4.296876 10.5 9.898438 10.5h67.898438c5.703124-.199219 10.203124-4.800781 10.300781-10.5v-25.5h13c5.5 0 10-4.898438 10-10.398438v-141.601562c-.199219-21.597657-15.898438-39.898438-37.199219-43.199219zm-386-54.601562c0-13 10.601562-24.199219 23.699219-24.199219h318.699219c13 0 23.703124 11.101562 23.703124 24.199219v56.300781c-18 5.699219-30 22.101562-30 41.601562v22h-306.101562v-22c0-19.402343-12-35.902343-30-41.601562zm336 139.800781v22h-306v-22zm-302 126h-48v-16h48zm346 0h-48v-16h48zm23-36h-440v-132c0-13 10.5-23.5 23.5-23.5s23.5 10.5 23.5 23.5v74.300781c0 5.5 4.800781 9.699219 10.300781 9.699219h325.398438c5.5 0 10.300781-4.199219 10.300781-9.699219v-74.300781c0-13 10.5-23.5 23.5-23.5s23.5 10.5 23.5 23.5zm0 0"/></svg>