<svg height="460pt" viewBox="0 0 460 460" width="460pt" xmlns="http://www.w3.org/2000/svg">
		<path d="M452.8,97.2H8c-4.8,0-8,3.2-8,8V154c0,4.8,3.2,8,8,8h22.4v193.6c0,4.8,3.2,8,8,8h34.4c4.8,0,8-3.2,8-8V162h136v44v52
			c0,4.8,3.2,8,8,8h154.4v89.6c0,4.8,3.2,8,8,8h35.2c4.8,0,8-3.2,8-8V162h22.4c4.8,0,8-3.2,8-8v-48.8
			C460.8,100.4,456.8,97.2,452.8,97.2z M64.8,346.8H46.4V162h18.4V346.8z M379.2,250H232.8v-36H288v8h36v-8h55.2V250z M379.2,198
			H232.8v-36H288v8.8h36V170v-8.8h55.2V198z M414.4,346.8H396V258v-52v-44h18.4V346.8z M422.4,146H388H224.8h-152H38.4H16v-32.8h428
			V146H422.4z"/>
</svg>
