<svg height="228pt" viewBox="0 0 228 228" width="228pt" xmlns="http://www.w3.org/2000/svg">
    <path d="m185.555,181.632h-34.74-10.615v-120.542h17.454v6.839c0,3.313 2.687,6 6,6s6-2.687 6-6v-12.839c0-3.313-2.687-6-6-6h-23.454v-5.329c0-24.13-19.632-43.761-43.762-43.761-24.13,0-43.762,19.631-43.762,43.761v137.871h-10.614c-3.313,0-6,2.687-6,6v33.985c0,3.313 2.687,6 6,6h108.753c3.313,0 6-2.687 6-6v-2.308h28.74c3.313,0 6-2.687 6-6v-25.678c0-3.313-2.686-5.999-6-5.999zm-137.493,12h96.753v21.985h-96.753v-21.985zm16.615-149.871c0-17.513 14.248-31.761 31.761-31.761 17.513,0 31.761,14.248 31.761,31.761v137.871h-63.522v-137.871zm114.878,163.549h-22.74v-13.678h22.74v13.678z"/>
</svg>
