<svg height="512pt" viewBox="0 0 512 512" width="512pt" xmlns="http://www.w3.org/2000/svg"><path d="M490.271,72.532h-63.604V49.56c0-10.874-8.821-19.695-19.695-19.695h-63.01c-10.874,0-19.695,8.821-19.695,19.695v22.972
				h-59.733h-17.07h-59.73V49.56c0-10.874-8.821-19.695-19.695-19.695h-63.01c-10.874,0-19.695,8.821-19.695,19.695v22.972H21.726
				C9.726,72.532,0,82.257,0,94.257v24.815c0,12,9.726,21.726,21.726,21.726h4.424L41.431,370.03
				c1.008,15.064,13.519,26.765,28.61,26.765h86.949l3.905,58.572c1.008,15.065,13.521,26.765,28.619,26.765h132.975
				c15.098,0,27.602-11.699,28.61-26.762l3.904-58.571h86.954c15.092,0,27.602-11.701,28.61-26.762l15.281-229.238h4.421
				c12,0,21.726-9.726,21.726-21.726V94.257C511.997,82.257,502.271,72.532,490.271,72.532z M341.333,49.56
				c0-1.448,1.18-2.628,2.628-2.628h63.01c1.448,0,2.628,1.18,2.628,2.628v22.972h-68.267V49.56z M375.463,176.689v30.618
				c0,0.97-0.787,1.758-1.758,1.758h-6.187h-17.102H161.584l0-0.003h-23.292c-0.97,0-1.758-0.787-1.758-1.758v-30.609
				c0-0.487,0.198-0.928,0.516-1.248c0.32-0.318,0.761-0.515,1.247-0.515h129.066h106.343
				C374.676,174.932,375.463,175.719,375.463,176.689z M245.777,157.865l1.139-17.067h0.547h17.07h0.551l1.139,17.067H245.777z
				 M102.4,49.56c0-1.448,1.18-2.628,2.628-2.628h63.01c1.448,0,2.628,1.18,2.628,2.628v22.972H102.4V49.56z M21.726,123.732
				c-2.575,0-4.659-2.085-4.659-4.659V94.257c0-2.575,2.085-4.659,4.659-4.659h63.607h102.4h59.73v34.13H25.012l0,0.003H21.726z
				 M70.042,379.728c-6.108,0-11.174-4.737-11.582-10.836L43.255,140.798h186.556l-1.139,17.063h-90.381
				c-5.151,0-9.816,2.076-13.215,5.431c-0.031,0.03-0.065,0.057-0.096,0.087c-0.03,0.031-0.057,0.065-0.087,0.096
				c-3.355,3.399-5.431,8.063-5.431,13.215v30.618c0,10.397,8.438,18.825,18.833,18.825h7.318l10.239,153.597H70.042z
				 M322.489,465.065H189.514c-6.116,0-11.182-4.737-11.59-10.836l-3.829-57.435h0.001l-11.375-170.663h186.555l-15.206,228.1
				C333.662,460.331,328.603,465.065,322.489,465.065z M453.54,368.898c-0.408,6.096-5.473,10.833-11.582,10.833h-85.812
				l10.237-153.6h7.322h0.003c10.396,0,18.825-8.428,18.825-18.825v-30.618c0-10.396-8.428-18.825-18.825-18.825h-0.003h-90.378
				l-1.139-17.067h186.557L453.54,368.898z M494.93,119.072c0,2.575-2.085,4.659-4.659,4.659h-3.283H264.533V89.598h59.733h102.4
				h63.604c2.575,0,4.659,2.085,4.659,4.659V119.072z"/>
			<path d="M256,285.865c-28.273,0-51.2,22.927-51.2,51.2c0,4.713,3.821,8.533,8.533,8.533c4.713,0,8.533-3.82,8.533-8.533
				c0-18.848,15.286-34.133,34.133-34.133s34.133,15.286,34.133,34.133c0,17.582-13.304,32.059-30.39,33.925l2.291-2.291
				c3.332-3.332,3.332-8.735,0-12.068c-3.332-3.333-8.735-3.333-12.068,0l-17.067,17.067c-0.199,0.199-0.387,0.408-0.565,0.625
				c-0.081,0.099-0.152,0.203-0.228,0.305c-0.091,0.121-0.185,0.24-0.269,0.366c-0.081,0.121-0.151,0.246-0.225,0.37
				c-0.069,0.115-0.141,0.228-0.204,0.346c-0.068,0.127-0.126,0.258-0.187,0.388c-0.058,0.123-0.119,0.243-0.171,0.369
				c-0.053,0.127-0.095,0.257-0.141,0.386c-0.048,0.134-0.099,0.265-0.141,0.402c-0.039,0.129-0.067,0.259-0.1,0.389
				c-0.035,0.14-0.074,0.278-0.103,0.421c-0.03,0.149-0.047,0.3-0.069,0.45c-0.018,0.125-0.042,0.249-0.054,0.376
				c-0.055,0.56-0.055,1.124,0,1.684c0.012,0.127,0.036,0.25,0.054,0.376c0.022,0.15,0.039,0.301,0.069,0.45
				c0.028,0.143,0.067,0.281,0.103,0.421c0.033,0.13,0.061,0.261,0.1,0.389c0.041,0.137,0.093,0.268,0.141,0.402
				c0.046,0.129,0.089,0.259,0.141,0.386c0.052,0.126,0.113,0.246,0.171,0.369c0.061,0.13,0.119,0.26,0.187,0.388
				c0.063,0.118,0.136,0.231,0.204,0.346c0.074,0.124,0.144,0.249,0.225,0.37c0.084,0.126,0.178,0.245,0.269,0.366
				c0.076,0.102,0.147,0.206,0.228,0.305c0.178,0.217,0.366,0.426,0.565,0.625l17.067,17.067c3.333,3.332,8.736,3.332,12.068,0
				c3.332-3.333,3.332-8.735,0-12.068l-2.625-2.625c26.683-1.757,47.791-23.948,47.791-51.074
				C307.2,308.792,284.273,285.865,256,285.865z"/>
</svg>
