<svg height="512pt" viewBox="0 0 512 512" width="512pt" xmlns="http://www.w3.org/2000/svg">
		<path d="M479.875,357.11c-0.007-0.082-0.011-0.164-0.021-0.245c-0.066-0.584-0.171-1.157-0.357-1.696l-31.395-119.973V45.526
			C448.103,20.423,427.679,0,402.576,0H225.112c-25.102,0-45.525,20.423-45.525,45.526v90.807H40.026
			c-4.391,0-7.952,3.56-7.952,7.952v40.827c0,4.392,3.561,7.952,7.952,7.952h52.585v45.19c0,34.177,27.805,61.982,61.982,61.982
			h7.973l-14.526,55.511c-0.012,0.047-0.018,0.094-0.028,0.141c-0.046,0.191-0.085,0.385-0.117,0.582
			c-0.016,0.101-0.033,0.2-0.046,0.301c-0.022,0.18-0.035,0.362-0.046,0.545c-0.007,0.112-0.015,0.222-0.018,0.333
			c0,0.037-0.005,0.073-0.005,0.112v52.399c0,4.391,3.561,7.952,7.952,7.952h12.536v85.943c0,4.392,3.56,7.952,7.952,7.952h39.906
			c4.391,0,7.952-3.56,7.952-7.952v-85.943h179.535v85.943c0,4.392,3.56,7.952,7.952,7.952h39.906c4.391,0,7.952-3.56,7.952-7.952
			v-85.943h12.536c4.391,0,7.952-3.561,7.952-7.952V358.18c0.008-0.14,0.021-0.279,0.021-0.421
			C479.929,357.536,479.893,357.326,479.875,357.11z M461.656,349.805H166.031l27.644-105.637h240.338L461.656,349.805z
			 M195.489,45.526c0-16.334,13.289-29.623,29.623-29.623h177.464c16.335,0,29.623,13.289,29.623,29.623v182.74H195.489v-35.204
			h97.152c4.391,0,7.952-3.56,7.952-7.952v-40.827c0-4.392-3.56-7.952-7.952-7.952h-97.152V45.526z M47.978,177.159v-24.924h139.559
			h97.152v24.924h-97.152H47.978z M154.592,273.729c-19.562,0-35.477-15.915-35.477-35.477v-45.19h60.47v42.132l-10.084,38.535
			H154.592z M208.174,496.098H184.17v-77.992h24.004V496.098z M443.517,496.098h-24.004v-77.992h24.004V496.098z M464.005,402.204
			h-12.536h-39.906H216.126h-39.906h-12.536v-36.496h300.321V402.204z"/>
</svg>
