<?xml version="1.0"?>
<svg xmlns="http://www.w3.org/2000/svg" id="Layer_1" data-name="Layer 1" viewBox="0 0 512 512" width="512" height="512"><title>Sink</title><path d="M458.048,212H367V187.375A8.386,8.386,0,0,0,358.933,179H299.642c-4.418,0-7.642,3.957-7.642,8.375V212H263V69.278a37,37,0,0,1,74,0v34.063a8,8,0,1,0,16,0V69.278a53,53,0,0,0-106,0V212H220V187.375c0-4.418-3.224-8.375-7.642-8.375H153.067A8.386,8.386,0,0,0,145,187.375V212H53.952a8,8,0,0,0,0,16H67v69.343A58.94,58.94,0,0,0,125.749,356H189v44.572c0,4.419,3.585,8.428,8,8.428h28v78.508c0,4.419,3.8,8.492,8.219,8.492h45.562c4.418,0,8.219-4.073,8.219-8.492V409h28c4.418,0,8-4.009,8-8.428V356h63.251A58.94,58.94,0,0,0,445,297.343V228h13.048a8,8,0,0,0,0-16ZM308,195h43v17H308Zm-147,0h43v17H161Zm44,161h7v37h-7Zm71,37V356h8v37Zm-16,0h-9V356h9Zm-25,0h-7V356h7Zm36,87H241V409h30Zm36-87h-7V356h7Zm122-95.657A42.922,42.922,0,0,1,386.251,340h-260.5A42.922,42.922,0,0,1,83,297.343V228H429Z"/></svg>
