<svg height="496pt" viewBox="0 -89 496 496" width="496pt" xmlns="http://www.w3.org/2000/svg"><path d="m486 0h-476c-5.5.101562-10 4.601562-10 10.101562v58.699219c0 5.597657 4.398438 10.097657 10 10.199219h32v228.898438c-.101562 5.5 4.199219 10 9.699219 10.101562h.101562 43.199219c5.601562-.101562 10-4.601562 10-10.101562v-228.898438h286v228.898438c0 5.601562 4.5 10.101562 10 10.101562h43.199219c5.5-.101562 9.902343-4.601562 9.800781-10.101562 0 0 0 0 0-.097657v-228.800781h32c5.601562-.101562 10-4.601562 10-10.199219v-58.699219c0-5.5-4.398438-10-10-10.101562zm-401 298h-23v-219h23zm349 0h-23v-219h23zm42-239h-456v-39h456zm0 0"/></svg>