<svg height="682pt" viewBox="-105 -21 682 682.66669" width="682pt" xmlns="http://www.w3.org/2000/svg"><path d="m367.308594 257.519531c3.761718 0 6.808594-3.050781 6.808594-6.8125 0-3.757812-3.046876-6.804687-6.808594-6.804687-3.757813 0-6.804688 3.046875-6.804688 6.804687-.007812 3.761719 3.046875 6.8125 6.804688 6.8125zm0 0"/><path d="m391.902344 257.519531c3.761718 0 6.808594-3.050781 6.808594-6.8125 0-3.757812-3.046876-6.804687-6.808594-6.804687-3.757813 0-6.804688 3.046875-6.804688 6.804687 0 3.761719 3.046875 6.8125 6.804688 6.8125zm0 0"/><path d="m416.5 257.519531c3.761719 0 6.808594-3.050781 6.808594-6.8125 0-3.757812-3.050782-6.804687-6.808594-6.804687-3.761719 0-6.808594 3.046875-6.808594 6.804687 0 3.761719 3.046875 6.8125 6.808594 6.8125zm0 0"/><path d="m374.117188 277.441406c0 3.761719-3.046876 6.8125-6.808594 6.8125-3.757813 0-6.804688-3.050781-6.804688-6.8125 0-3.761718 3.046875-6.808594 6.804688-6.808594 3.761718 0 6.808594 3.046876 6.808594 6.808594zm0 0"/><path d="m398.710938 277.441406c0 3.761719-3.046876 6.8125-6.808594 6.8125-3.757813 0-6.804688-3.050781-6.804688-6.8125 0-3.761718 3.046875-6.808594 6.804688-6.808594 3.761718 0 6.808594 3.046876 6.808594 6.808594zm0 0"/><path d="m423.308594 277.441406c0 3.761719-3.050782 6.8125-6.808594 6.8125-3.761719 0-6.808594-3.050781-6.808594-6.8125 0-3.761718 3.046875-6.808594 6.808594-6.808594 3.757812 0 6.808594 3.046876 6.808594 6.808594zm0 0"/><path d="m367.308594 310.984375c3.761718 0 6.808594-3.050781 6.808594-6.808594 0-3.761719-3.046876-6.808593-6.808594-6.808593-3.757813 0-6.804688 3.046874-6.804688 6.808593-.007812 3.761719 3.046875 6.808594 6.804688 6.808594zm0 0"/><path d="m391.902344 310.984375c3.761718 0 6.808594-3.050781 6.808594-6.808594 0-3.761719-3.046876-6.808593-6.808594-6.808593-3.757813 0-6.804688 3.046874-6.804688 6.808593s3.046875 6.808594 6.804688 6.808594zm0 0"/><path d="m416.5 310.984375c3.761719 0 6.808594-3.050781 6.808594-6.808594 0-3.761719-3.050782-6.808593-6.808594-6.808593-3.761719 0-6.808594 3.046874-6.808594 6.808593s3.046875 6.808594 6.808594 6.808594zm0 0"/><path d="m457.984375 0h-453.847656c-5.1875 0-9.386719 4.199219-9.386719 9.382812v621.234376c0 5.183593 4.199219 9.382812 9.386719 9.382812h453.851562c5.179688 0 9.378907-4.199219 9.378907-9.382812v-621.234376c0-5.183593-4.199219-9.382812-9.382813-9.382812zm-141.542969 340.929688v183.53125h-210.019531c-5.183594 0-9.386719 4.207031-9.386719 9.386718 0 5.183594 4.203125 9.386719 9.386719 9.386719h210.019531v78h-302.925781v-78h48.960937c5.183594 0 9.382813-4.203125 9.382813-9.386719 0-5.179687-4.199219-9.386718-9.382813-9.386718h-48.960937v-391.144532h302.925781zm0-226.378907h-302.925781v-95.785156h302.925781zm132.160156 506.683594h-113.398437v-161.945313h113.398437zm0-289.691406h-53.652343c-5.179688 0-9.382813 4.199219-9.382813 9.386719 0 5.179687 4.203125 9.382812 9.382813 9.382812h53.652343v90.203125h-113.398437v-90.203125h16.378906c5.179688 0 9.378907-4.203125 9.378907-9.382812 0-5.1875-4.199219-9.386719-9.378907-9.386719h-16.378906v-312.777344h113.398437zm0 0"/><path d="m71.855469 168.550781h-10.921875c-5.1875 0-9.386719-4.199219-9.386719-9.378906 0-5.1875 4.199219-9.386719 9.386719-9.386719h10.921875c5.179687 0 9.382812 4.199219 9.382812 9.386719 0 5.179687-4.203125 9.378906-9.382812 9.378906zm0 0"/><path d="m147.382812 168.550781h-37.988281c-5.1875 0-9.386719-4.199219-9.386719-9.378906 0-5.1875 4.199219-9.386719 9.386719-9.386719h37.988281c5.179688 0 9.382813 4.199219 9.382813 9.386719 0 5.179687-4.203125 9.378906-9.382813 9.378906zm0 0"/><path d="m71.855469 205.25h-10.921875c-5.1875 0-9.386719-4.199219-9.386719-9.386719 0-5.179687 4.199219-9.378906 9.386719-9.378906h10.921875c5.179687 0 9.382812 4.199219 9.382812 9.378906 0 5.1875-4.203125 9.386719-9.382812 9.386719zm0 0"/><path d="m147.382812 205.25h-37.988281c-5.1875 0-9.386719-4.199219-9.386719-9.386719 0-5.179687 4.199219-9.378906 9.386719-9.378906h37.988281c5.179688 0 9.382813 4.199219 9.382813 9.378906 0 5.1875-4.203125 9.386719-9.382813 9.386719zm0 0"/><path d="m71.855469 241.949219h-10.921875c-5.1875 0-9.386719-4.199219-9.386719-9.386719 0-5.179688 4.199219-9.382812 9.386719-9.382812h10.921875c5.179687 0 9.382812 4.203124 9.382812 9.382812 0 5.1875-4.203125 9.386719-9.382812 9.386719zm0 0"/><path d="m147.382812 241.949219h-37.988281c-5.1875 0-9.386719-4.199219-9.386719-9.386719 0-5.179688 4.199219-9.382812 9.386719-9.382812h37.988281c5.179688 0 9.382813 4.203124 9.382813 9.382812 0 5.1875-4.203125 9.386719-9.382813 9.386719zm0 0"/><path d="m71.855469 278.648438h-10.921875c-5.1875 0-9.386719-4.199219-9.386719-9.386719 0-5.179688 4.199219-9.382813 9.386719-9.382813h10.921875c5.179687 0 9.382812 4.203125 9.382812 9.382813 0 5.1875-4.203125 9.386719-9.382812 9.386719zm0 0"/><path d="m147.382812 278.648438h-37.988281c-5.1875 0-9.386719-4.199219-9.386719-9.386719 0-5.179688 4.199219-9.382813 9.386719-9.382813h37.988281c5.179688 0 9.382813 4.203125 9.382813 9.382813 0 5.1875-4.203125 9.386719-9.382813 9.386719zm0 0"/><path d="m71.855469 315.34375h-10.921875c-5.1875 0-9.386719-4.203125-9.386719-9.382812 0-5.183594 4.199219-9.382813 9.386719-9.382813h10.921875c5.179687 0 9.382812 4.199219 9.382812 9.382813 0 5.179687-4.203125 9.382812-9.382812 9.382812zm0 0"/><path d="m147.382812 315.34375h-37.988281c-5.1875 0-9.386719-4.203125-9.386719-9.382812 0-5.183594 4.199219-9.382813 9.386719-9.382813h37.988281c5.179688 0 9.382813 4.199219 9.382813 9.382813 0 5.179687-4.203125 9.382812-9.382813 9.382812zm0 0"/><path d="m269.023438 168.550781h-10.921876c-5.183593 0-9.386718-4.199219-9.386718-9.378906 0-5.1875 4.203125-9.386719 9.386718-9.386719h10.921876c5.183593 0 9.382812 4.199219 9.382812 9.386719 0 5.179687-4.199219 9.378906-9.382812 9.378906zm0 0"/><path d="m221.257812 168.550781h-38.679687c-5.1875 0-9.386719-4.199219-9.386719-9.378906 0-5.1875 4.199219-9.386719 9.386719-9.386719h38.679687c5.183594 0 9.386719 4.199219 9.386719 9.386719 0 5.179687-4.203125 9.378906-9.386719 9.378906zm0 0"/><path d="m269.023438 205.25h-10.921876c-5.183593 0-9.386718-4.199219-9.386718-9.386719 0-5.179687 4.203125-9.378906 9.386718-9.378906h10.921876c5.183593 0 9.382812 4.199219 9.382812 9.378906 0 5.1875-4.199219 9.386719-9.382812 9.386719zm0 0"/><path d="m221.257812 205.25h-38.679687c-5.1875 0-9.386719-4.199219-9.386719-9.386719 0-5.179687 4.199219-9.378906 9.386719-9.378906h38.679687c5.183594 0 9.386719 4.199219 9.386719 9.378906 0 5.1875-4.203125 9.386719-9.386719 9.386719zm0 0"/><path d="m269.023438 241.949219h-10.921876c-5.183593 0-9.386718-4.199219-9.386718-9.386719 0-5.179688 4.203125-9.382812 9.386718-9.382812h10.921876c5.183593 0 9.382812 4.203124 9.382812 9.382812 0 5.1875-4.199219 9.386719-9.382812 9.386719zm0 0"/><path d="m221.257812 241.949219h-38.679687c-5.1875 0-9.386719-4.199219-9.386719-9.386719 0-5.179688 4.199219-9.382812 9.386719-9.382812h38.679687c5.183594 0 9.386719 4.203124 9.386719 9.382812 0 5.1875-4.203125 9.386719-9.386719 9.386719zm0 0"/><path d="m269.023438 278.648438h-10.921876c-5.183593 0-9.386718-4.199219-9.386718-9.386719 0-5.179688 4.203125-9.382813 9.386718-9.382813h10.921876c5.183593 0 9.382812 4.203125 9.382812 9.382813 0 5.1875-4.199219 9.386719-9.382812 9.386719zm0 0"/><path d="m221.257812 278.648438h-38.679687c-5.1875 0-9.386719-4.199219-9.386719-9.386719 0-5.179688 4.199219-9.382813 9.386719-9.382813h38.679687c5.183594 0 9.386719 4.203125 9.386719 9.382813 0 5.1875-4.203125 9.386719-9.386719 9.386719zm0 0"/><path d="m269.023438 315.34375h-10.921876c-5.183593 0-9.386718-4.203125-9.386718-9.382812 0-5.183594 4.203125-9.382813 9.386718-9.382813h10.921876c5.183593 0 9.382812 4.199219 9.382812 9.382813 0 5.179687-4.199219 9.382812-9.382812 9.382812zm0 0"/><path d="m221.257812 315.34375h-38.679687c-5.1875 0-9.386719-4.203125-9.386719-9.382812 0-5.183594 4.199219-9.382813 9.386719-9.382813h38.679687c5.183594 0 9.386719 4.199219 9.386719 9.382813 0 5.179687-4.203125 9.382812-9.386719 9.382812zm0 0"/><path d="m369.382812 426.972656h45.039063c5.183594 0 9.386719-4.199218 9.386719-9.386718 0-5.179688-4.203125-9.378907-9.386719-9.378907h-45.039063c-5.179687 0-9.382812 4.199219-9.382812 9.378907 0 5.1875 4.203125 9.386718 9.382812 9.386718zm0 0"/><path d="m391.902344 392.601562c7.371094 0 13.347656-5.96875 13.347656-13.34375s-5.976562-13.34375-13.347656-13.34375c-7.367188 0-13.34375 5.976563-13.34375 13.34375 0 7.367188 5.976562 13.34375 13.34375 13.34375zm0 0"/><path d="m284.140625 503.636719c9.3125 0 16.890625-7.578125 16.890625-16.886719v-138.316406c0-9.3125-7.578125-16.890625-16.890625-16.890625h-238.324219c-9.3125 0-16.890625 7.578125-16.890625 16.890625v138.316406c0 9.308594 7.578125 16.886719 16.890625 16.886719zm-135.042969-18.761719-8.046875-64.191406h47.859375l-8.050781 64.191406zm-101.402344-134.5625h234.570313v134.5625h-82.492187l8.054687-64.21875c4.910156-.300781 8.808594-4.367188 8.808594-9.359375 0-5.179687-4.199219-9.382813-9.382813-9.382813h-21.6875l4.628906-24.121093c.976563-5.089844-2.359374-10.003907-7.445312-10.980469-5.09375-.984375-10.011719 2.359375-10.988281 7.445312l-5.308594 27.65625h-43.75c-5.179687 0-9.382813 4.203126-9.382813 9.382813 0 4.992187 3.894532 9.058594 8.8125 9.359375l8.050782 64.21875h-82.488282zm0 0"/></svg>