<?xml version="1.0"?>
<svg xmlns="http://www.w3.org/2000/svg" viewBox="0 0 64 64" width="512" height="512"><g id="wall-block-brick-construction"><path d="M61,15H3a1,1,0,0,0-1,1V48a1,1,0,0,0,1,1H61a1,1,0,0,0,1-1V16A1,1,0,0,0,61,15ZM60,25v6H53V25Zm0,14H43V33H60ZM31,25v6H14V25ZM24,39V33H41v6ZM12,31H4V25h8ZM4,33H22v6H4Zm27,8v6H14V41Zm2,0H51v6H33ZM51,31H33V25H51ZM24,23V17H41v6ZM4,17H22v6H4ZM4,47V41h8v6Zm49,0V41h7v6Zm7-24H43V17H60Z"/><rect x="7.172" y="19" width="5.657" height="2" transform="translate(-11.213 12.929) rotate(-45)"/><rect x="13.586" y="20" width="2.828" height="2" transform="translate(-10.456 16.757) rotate(-45)"/><rect x="46.172" y="35" width="5.657" height="2" transform="translate(-11.104 45.192) rotate(-45)"/><rect x="52.586" y="36" width="2.828" height="2" transform="translate(-10.347 49.021) rotate(-45)"/><rect x="20.172" y="43" width="5.657" height="2" transform="translate(-24.376 29.151) rotate(-45)"/><rect x="26.586" y="44" width="2.828" height="2" transform="translate(-23.619 32.979) rotate(-45)"/></g></svg>
