<?xml version="1.0" encoding="iso-8859-1"?>
<!-- Generator: Adobe Illustrator 19.0.0, SVG Export Plug-In . SVG Version: 6.00 Build 0)  -->
<svg version="1.1" id="Capa_1" xmlns="http://www.w3.org/2000/svg" xmlns:xlink="http://www.w3.org/1999/xlink" x="0px" y="0px"
	 viewBox="0 0 512 512" style="enable-background:new 0 0 512 512;" xml:space="preserve">
<g>
	<g>
		<path d="M437.039,75.029C388.7,26.689,324.429,0.067,256.068,0.067S123.436,26.689,75.096,75.029
			C27.281,122.844,0.732,186.251,0.162,253.784C0.067,254.468,0,255.162,0,255.873c0,0.703,0.065,1.39,0.159,2.067
			c0.499,67.636,27.056,131.15,74.937,179.031c48.34,48.34,112.61,74.961,180.971,74.961s132.633-26.621,180.971-74.961
			C485.379,388.632,512,324.362,512,256S485.379,123.367,437.039,75.029z M425.945,404.937l-17.282-16.646
			c-5.97-5.75-15.466-5.569-21.213,0.398c-5.748,5.968-5.569,15.465,0.398,21.213l16.859,16.238
			c-37.427,32.791-83.977,52.047-133.636,55.282v-54.081c0-8.286-6.716-15.003-15.003-15.003c-8.286,0-15.003,6.717-15.003,15.003
			v54.081c-44.07-2.871-85.689-18.359-120.659-44.728l15.796-16.399c5.748-5.968,5.57-15.465-0.398-21.213
			c-5.968-5.747-15.465-5.569-21.213,0.398l-16.934,17.582c-0.445-0.438-0.899-0.866-1.341-1.309
			c-39.147-39.145-62.144-90.128-65.678-144.876H84.59c8.286,0,15.003-6.717,15.003-15.003c0-8.286-6.717-15.003-15.003-15.003
			H30.651c3.074-46.786,20.369-90.809,49.808-127.035l17.359,16.72c2.911,2.804,6.66,4.197,10.406,4.197
			c3.934,0,7.864-1.538,10.808-4.595c5.748-5.968,5.57-15.465-0.398-21.213l-17.771-17.116
			c38.477-36.426,87.596-57.827,140.2-61.252v54.081c0,8.286,6.717,15.003,15.003,15.003c8.287,0,15.003-6.717,15.003-15.003V30.576
			c52.519,3.421,101.563,24.759,140.012,61.077l-17.144,17.8c-5.748,5.967-5.569,15.465,0.397,21.213
			c2.911,2.804,6.661,4.197,10.406,4.197c3.935,0,7.863-1.538,10.808-4.595l15.991-16.602
			c29.522,36.257,46.865,80.344,49.944,127.204h-54.209c-8.286,0-15.003,6.717-15.003,15.003c0,8.286,6.717,15.003,15.003,15.003
			h54.225C478.282,320.715,458.924,367.428,425.945,404.937z"/>
	</g>
</g>
<g>
	<g>
		<path d="M351.475,313.868l-80.405-65.151V139.059c0-8.286-6.716-15.003-15.003-15.003c-8.286,0-15.003,6.717-15.003,15.003V256
			c0.001,5.297,2.754,9.943,6.898,12.613l84.622,68.569c2.779,2.251,6.118,3.347,9.437,3.347c4.369,0,8.701-1.899,11.665-5.558
			C358.903,328.532,357.913,319.085,351.475,313.868z"/>
	</g>
</g>
<g>
</g>
<g>
</g>
<g>
</g>
<g>
</g>
<g>
</g>
<g>
</g>
<g>
</g>
<g>
</g>
<g>
</g>
<g>
</g>
<g>
</g>
<g>
</g>
<g>
</g>
<g>
</g>
<g>
</g>
</svg>
