<svg height="682pt" viewBox="-21 -21 682.66679 682" width="682pt" xmlns="http://www.w3.org/2000/svg"><path d="m607.996094 555h-575.996094c-5.890625 0-10.667969-4.773438-10.667969-10.667969v-522.664062c0-11.785157 9.550781-21.335938 21.332031-21.335938h554.667969c11.785157 0 21.335938 9.550781 21.335938 21.335938v522.664062c0 5.894531-4.777344 10.667969-10.671875 10.667969zm-565.332032-21.332031h554.667969v-512h-554.667969zm0 0"/><path d="m320 512.335938h-245.332031c-5.894531 0-10.667969-4.777344-10.667969-10.671876v-447.996093c0-5.894531 4.773438-10.667969 10.667969-10.667969h245.332031c5.886719 0 10.667969 4.773438 10.667969 10.667969v447.996093c0 5.894532-4.78125 10.671876-10.667969 10.671876zm-234.667969-21.335938h224v-426.667969h-224zm0 0"/><path d="m565.332031 512.335938h-245.332031c-5.890625 0-10.667969-4.777344-10.667969-10.671876v-447.996093c0-5.894531 4.777344-10.667969 10.667969-10.667969h245.332031c5.894531 0 10.667969 4.773438 10.667969 10.667969v447.996093c0 5.894532-4.773438 10.671876-10.667969 10.671876zm-234.664062-21.335938h224v-426.667969h-224zm0 0"/><path d="m618.667969 640.332031h-597.335938c-11.78125 0-21.332031-9.550781-21.332031-21.332031v-32.003906c0-1.648438.382812-3.285156 1.117188-4.765625l21.332031-42.664063c1.8125-3.617187 5.507812-5.902344 9.550781-5.898437h575.996094c4.0625-.023438 7.789062 2.265625 9.601562 5.898437l21.335938 42.664063c.71875 1.484375 1.085937 3.117187 1.066406 4.765625v32.003906c0 11.78125-9.550781 21.332031-21.332031 21.332031zm-597.335938-50.816406v29.484375h597.335938v-29.484375l-17.261719-34.515625h-562.8125zm0 0"/><path d="m64 597.667969h-53.332031c-5.894531 0-10.667969-4.777344-10.667969-10.671875 0-5.886719 4.773438-10.664063 10.667969-10.664063h53.332031c5.890625 0 10.667969 4.777344 10.667969 10.664063 0 5.894531-4.777344 10.671875-10.667969 10.671875zm0 0"/><path d="m629.332031 597.667969h-522.667969c-5.886718 0-10.664062-4.777344-10.664062-10.671875 0-5.886719 4.777344-10.664063 10.664062-10.664063h522.667969c5.890625 0 10.667969 4.777344 10.667969 10.664063 0 5.894531-4.777344 10.671875-10.667969 10.671875zm0 0"/><path d="m256 363c-5.894531 0-10.667969-4.777344-10.667969-10.664062v-32.003907c0-17.667969 14.324219-32 32-32 5.890625 0 10.664063 4.78125 10.664063 10.667969 0 5.890625-4.773438 10.667969-10.664063 10.667969s-10.667969 4.777343-10.667969 10.664062v32.003907c0 5.886718-4.773437 10.664062-10.664062 10.664062zm0 0"/><path d="m384 363c-5.890625 0-10.664062-4.777344-10.664062-10.664062v-32.003907c0-5.886719-4.777344-10.664062-10.671876-10.664062-5.886718 0-10.664062-4.777344-10.664062-10.667969 0-5.886719 4.777344-10.667969 10.664062-10.667969 17.675782 0 32.003907 14.332031 32.003907 32v32.003907c0 5.886718-4.777344 10.664062-10.667969 10.664062zm0 0"/><path d="m151.265625 292.492188c-4.832031 0-9.054687-3.242188-10.304687-7.90625-1.25-4.664063.785156-9.585938 4.972656-11.996094 96.976562-56.117188 88.851562-216.683594 88.734375-218.292969-.226563-3.8125 1.601562-7.453125 4.785156-9.554687 3.1875-2.097657 7.253906-2.339844 10.667969-.628907 3.414062 1.714844 5.65625 5.113281 5.878906 8.925781.425781 7.125 9.066406 175.292969-99.378906 238.027344-1.632813.9375-3.476563 1.429688-5.355469 1.425782zm0 0"/><path d="m213.335938 512.335938c-5.894532 0-10.671876-4.777344-10.671876-10.671876 0-101.105468-34.34375-134.460937-54.824218-145.355468-5.203125-2.765625-7.175782-9.226563-4.40625-14.425782 2.765625-5.207031 9.230468-7.175781 14.433594-4.40625 24.691406 13.140626 66.132812 51.933594 66.132812 164.1875 0 5.894532-4.777344 10.671876-10.664062 10.671876zm0 0"/><path d="m138.667969 363h-64c-5.894531 0-10.667969-4.777344-10.667969-10.664062v-74.667969c0-5.894531 4.773438-10.667969 10.667969-10.667969h64c17.667969 0 32 14.328125 32 32v32.003906c0 17.667969-14.332031 31.996094-32 31.996094zm-53.335938-21.332031h53.335938c5.886719 0 10.664062-4.777344 10.664062-10.664063v-32.003906c0-5.886719-4.777343-10.667969-10.664062-10.667969h-53.335938zm0 0"/><path d="m117.332031 203c-5.890625 0-10.667969-4.777344-10.667969-10.664062v-53.335938c0-5.886719 4.777344-10.667969 10.667969-10.667969s10.664063 4.78125 10.664063 10.667969v53.335938c0 5.886718-4.773438 10.664062-10.664063 10.664062zm0 0"/><path d="m117.332031 288.332031c-5.890625 0-10.667969-4.777343-10.667969-10.664062v-42.667969c0-5.890625 4.777344-10.667969 10.667969-10.667969s10.664063 4.777344 10.664063 10.667969v42.667969c0 5.886719-4.773438 10.664062-10.664063 10.664062zm0 0"/><path d="m117.332031 395c-5.890625 0-10.667969-4.773438-10.667969-10.667969v-31.996093c0-5.894532 4.777344-10.667969 10.667969-10.667969s10.664063 4.773437 10.664063 10.667969v31.996093c0 5.894531-4.773438 10.667969-10.664063 10.667969zm0 0"/><path d="m117.332031 459c-5.890625 0-10.667969-4.777344-10.667969-10.667969v-21.335937c0-5.886719 4.777344-10.664063 10.667969-10.664063s10.664063 4.777344 10.664063 10.664063v21.335937c0 5.890625-4.773438 10.667969-10.664063 10.667969zm0 0"/><path d="m170.667969 213.667969c-3.933594-.003907-7.546875-2.171875-9.398438-5.640625-1.855469-3.46875-1.652343-7.675782.53125-10.945313 10.488281-13.902343 17.210938-30.273437 19.53125-47.53125.128907-5.808593 4.855469-10.460937 10.667969-10.496093h.117188c5.820312.0625 10.519531 4.789062 10.546874 10.613281 0 2.515625-.648437 25.535156-23.125 59.253906-1.976562 2.964844-5.304687 4.746094-8.871093 4.746094zm0 0"/><path d="m488.992188 292.492188c-1.875 0-3.714844-.492188-5.335938-1.425782-108.445312-62.734375-99.820312-230.902344-99.390625-238.027344.117187-2.847656 1.382813-5.519531 3.507813-7.414062 2.128906-1.886719 4.929687-2.839844 7.769531-2.625 5.878906.351562 10.359375 5.394531 10.011719 11.273438-.082032 1.613281-8.222657 162.132812 88.789062 218.296874 4.179688 2.410157 6.222656 7.332032 4.972656 11.996094-1.25 4.664063-5.472656 7.90625-10.304687 7.90625zm0 0"/><path d="m426.914062 512.335938c-5.894531 0-10.667968-4.777344-10.667968-10.671876 0-112.253906 41.449218-151.046874 66.132812-164.1875 5.199219-2.769531 11.660156-.789062 14.425782 4.410157 2.765624 5.199219.792968 11.660156-4.414063 14.421875-20.476563 10.894531-54.832031 44.257812-54.832031 145.355468 0 5.886719-4.765625 10.65625-10.644532 10.671876zm0 0"/><path d="m565.582031 363h-64.003906c-17.671875 0-32-14.328125-32-31.996094v-32.003906c0-17.671875 14.328125-32 32-32h64.003906c5.886719 0 10.664063 4.773438 10.664063 10.667969v74.667969c0 5.886718-4.777344 10.664062-10.664063 10.664062zm-64.003906-74.667969c-5.890625 0-10.664063 4.78125-10.664063 10.667969v32.003906c0 5.886719 4.773438 10.664063 10.664063 10.664063h53.332031v-53.335938zm0 0"/><path d="m522.910156 203c-5.890625 0-10.664062-4.777344-10.664062-10.664062v-53.335938c0-5.886719 4.773437-10.667969 10.664062-10.667969 5.894532 0 10.667969 4.78125 10.667969 10.667969v53.335938c0 5.886718-4.773437 10.664062-10.667969 10.664062zm0 0"/><path d="m522.910156 288.332031c-5.890625 0-10.664062-4.777343-10.664062-10.664062v-42.667969c0-5.890625 4.773437-10.667969 10.664062-10.667969 5.894532 0 10.667969 4.777344 10.667969 10.667969v42.667969c0 5.886719-4.773437 10.664062-10.667969 10.664062zm0 0"/><path d="m522.910156 395c-5.890625 0-10.664062-4.773438-10.664062-10.667969v-31.996093c0-5.894532 4.773437-10.667969 10.664062-10.667969 5.894532 0 10.667969 4.773437 10.667969 10.667969v31.996093c0 5.894531-4.773437 10.667969-10.667969 10.667969zm0 0"/><path d="m522.910156 459c-5.890625 0-10.664062-4.777344-10.664062-10.667969v-21.335937c0-5.886719 4.773437-10.664063 10.664062-10.664063 5.894532 0 10.667969 4.777344 10.667969 10.664063v21.335937c0 5.890625-4.773437 10.667969-10.667969 10.667969zm0 0"/><path d="m469.589844 213.667969c-3.570313.003906-6.90625-1.777344-8.886719-4.746094-22.476563-33.71875-23.125-56.738281-23.125-59.253906-.023437-5.890625 4.726563-10.6875 10.621094-10.714844 5.886719-.027344 10.6875 4.726563 10.710937 10.617187 2.347656 17.246094 9.078125 33.601563 19.542969 47.511719 2.179687 3.269531 2.386719 7.476563.535156 10.945313-1.855469 3.46875-5.46875 5.636718-9.398437 5.640625zm0 0"/></svg>